<svg width="600" height="333" viewBox="0 0 600 333" fill="none" xmlns="http://www.w3.org/2000/svg">
<path d="M214.43 214.06C208.8 215.74 205.02 213.52 203.09 207.43C201.31 201.81 201.15 194.63 202.61 185.89C203.95 177.98 205.96 168.75 208.65 158.19C200.66 177.93 195.85 188.07 194.22 188.59C191.77 189.38 190.16 188.54 189.38 186.07C188.75 184.08 189.32 181.24 191.11 177.56C197.01 162.98 204.15 145.81 212.51 126.04C213.42 124.07 214.52 122.87 215.8 122.46C218.13 121.71 222.14 123.85 227.85 128.88C231.03 131.62 232.9 133.86 233.45 135.62C233.86 136.92 233.94 138.57 233.68 140.59C233.14 146.2 232.12 154.3 230.6 164.88C230.19 166.83 230.17 168.38 230.54 169.56C231.06 171.2 232.06 171.52 233.54 170.54C235.3 169.2 237.23 166.39 239.34 162.09C243.71 153.21 248.74 140.55 254.46 124.13C255.3 121.54 257.88 118.23 262.19 114.19C266.5 110.16 270.08 107.81 272.95 107.14C276.87 106.14 279.24 106.93 280.05 109.5C280.76 111.73 280.68 116.14 279.83 122.74C278.07 132.99 276.21 144.75 274.26 158.02C274.11 163.61 275.6 165.91 278.75 164.9C280.26 164.41 281.8 162.76 283.34 159.94C285.21 156.5 287.05 152.81 288.88 148.87C289.79 146.9 291.18 145.61 293.05 145.01C295.49 144.22 297.07 144.95 297.78 147.17C298.12 148.23 297.62 150.32 296.3 153.46C289 170.92 280.47 184.31 270.72 193.64C268.37 195.94 265.97 197.49 263.53 198.28C259.92 199.44 256.48 198.93 253.23 196.75C250.43 194.81 248.48 192.08 247.36 188.56C246.8 186.8 246.57 185.07 246.68 183.36C247.29 177.61 248.34 169.4 249.84 158.71C234.65 193.02 222.85 211.47 214.43 214.06Z" fill="black"/>
<path d="M460.16 0.779997C462.73 1.64 464.64 4 465.87 7.87C467.73 13.74 467.44 19.49 464.98 25.13C462.53 30.77 458.57 34.46 453.09 36.22C449.71 37.3 446.59 37.38 443.72 36.42C440.86 35.46 438.77 32.94 437.46 28.82C435.86 23.78 436.15 18.19 438.32 12.07C440.36 6.37 444.06 2.66 449.43 0.929997C453.14 -0.260003 456.72 -0.310003 460.16 0.779997Z" fill="black"/>
<path d="M189.56 181.67C189.44 181.96 189.37 182.21 189.35 182.42C189.6 181.71 189.69 181.39 189.56 181.67ZM189.81 133.25C204.93 89.28 227.27 40.35 220.43 38.96C192.23 33.23 126.59 124.47 118.65 145.58C108.49 148.74 97.46 147.88 89.84 147.88C84.13 147.88 86.93 163.42 86.93 163.42C88.25 170.54 99.96 168.9 109.47 165.16C99.06 188.68 45.63 253.14 21.34 253.14C19.52 253.14 22.42 291.79 6.62999 319.73C-16.91 361.38 25.74 292.35 80.76 237.32C96.36 221.72 133.38 164.06 136.71 160.1C144.02 157.92 159.75 153.27 160.12 154.44C160.12 154.44 137.44 199.33 145.29 216.95C163.72 258.34 194.22 189.41 195.32 187.49C198.85 181.34 189.06 185.52 189.36 182.4C187.83 186.74 180.15 205.8 177.35 195.59C174.88 186.6 177.53 168.28 184.49 146.82C184.86 145.67 199.56 144.12 199.95 142.96C200.25 142.04 202.74 132.57 203.06 131.64C203.5 130.28 189.33 134.64 189.81 133.25ZM166.56 138.98C156.81 142.12 153.57 142.62 141.73 144.6C145.08 134.1 176.65 78.39 185.86 72.58C188 71.25 189.77 70.36 191.17 69.91C193.73 69.09 195.29 69.55 195.85 71.31C196.37 72.95 195.98 75.59 194.7 79.23C191.47 88.41 167.97 132.64 166.56 138.98Z" fill="black"/>
<path d="M555.16 108.84C542.69 97.54 534.7 78.55 552.99 48.37C559.45 37.71 555.75 28.55 554.86 25.74C554.53 24.69 554.01 23.88 553.33 23.33C549.15 20.3 545.5 19.28 542.35 20.29C540.37 20.93 538.3 22.49 536.14 24.99C533.98 27.49 531.88 29.96 529.83 32.42C526.61 36.03 522.07 42.96 516.19 53.21C513.7 57.48 511.04 62.26 508.23 67.54C510.21 60.86 510.81 56.35 511.08 54.07C513.78 30.44 497.37 33.08 495.14 34.59C492.43 36.42 489.67 39.85 482.08 59.16C478.28 69.86 466.8 92.65 464.11 98.33C461.08 104.6 458.93 107.93 457.65 108.35C456.6 108.69 455.88 108.21 455.46 106.92C454.57 104.1 454.78 97.07 456.08 85.81C457.52 73.73 457.05 66.26 456.73 62.95C454.56 40.88 439.75 48.02 435.67 54.23C434.29 56.34 432.01 59.97 428.89 67.45C426.16 73.97 406.85 121.2 403.54 126.14C402.9 127.38 401.8 128.54 400.21 129.62C398.64 130.71 397.49 131.18 396.8 131.01C394.6 130.56 393.63 128.1 393.88 123.62C393.91 122.07 400.67 85.68 402.65 76.55C404.27 76.03 406.34 75.36 408.85 74.56C411.36 73.76 413.02 73.22 413.84 72.95C416.4 72.13 417.98 71.24 418.57 70.28L420.28 64.72C420.57 63.6 420.61 62.75 420.43 62.17C419.81 60.18 414.6 60.77 404.81 63.92C405.27 60.93 405.52 59.49 405.56 59.61C406.08 55.57 405.89 52.15 405 49.34C404.18 46.77 402.59 44.56 400.21 42.74C398.25 41.43 396.25 40.15 394.17 38.88C391.64 37.37 389.67 36.84 388.27 37.28C386.75 37.77 385.69 39.27 385.07 41.79C381.39 57.32 379.37 65.91 379 67.58C378.6 68.74 377.95 70.37 377.09 72.46C369.39 74.93 365.27 77.49 364.69 80.13C364.47 81.49 364.52 82.64 364.82 83.57C365.75 86.5 368.07 87.37 371.81 86.17C365.71 100.83 351.1 133.33 349.11 135.13C348.14 132.09 346.4 129.03 343.88 125.96C339.69 120.85 337.39 118.04 336.98 117.53C334.06 113.18 332.34 110.18 331.81 108.54C331.3 106.9 331.47 105.23 332.33 103.53C333.2 101.83 335.54 100.89 339.33 100.7C339.95 100.63 340.54 100.5 341.13 100.32C343.35 99.61 345.15 98 346.54 95.5C347.92 93 348.23 90.53 347.46 88.08C345.35 81.44 340.4 79.37 332.59 81.88C328.16 83.31 323.42 86.77 318.36 92.26C313.3 97.75 309.03 104.15 305.58 111.45C297.36 130.08 291.54 143.48 288.11 151.68C286.8 154.55 287.37 156.36 289.83 157.11C292.37 157.84 294.35 156.82 295.79 154.03C296.18 153.26 299.34 145.99 305.24 132.21C309.82 121.57 313.49 114.71 316.24 111.63C316.3 115.48 317.44 120.67 319.63 127.19C322.2 134.5 323.66 139.72 324.01 142.82C317.69 143.95 313.42 144.87 311.22 145.58C307.37 146.82 303.86 148.92 300.69 151.88C296.85 155.56 295.87 160.34 297.73 166.2C298.85 169.72 300.95 172.91 304.04 175.79C309.01 180.52 316.67 179.73 328.09 177.55C351.17 173.14 369.01 112.21 370.92 107.03C366.53 126.78 365.09 140.87 366.6 149.28C367.17 152.72 369.21 155.48 372.7 157.58C376.57 160.09 381.18 161.52 385.32 159.15C405.27 147.72 429.61 93.97 431.71 88.45C429.31 104.82 428 114.64 427.77 117.94C427.26 124.03 427.69 129.24 429.06 133.56C429.73 135.67 431.29 137.55 433.74 139.21C436.83 141.31 440.13 141.8 443.63 140.67C448.88 138.99 455.58 132 463.74 119.71C471.32 108.39 483.19 78.37 487.09 68.94C484.1 87.85 482.25 99.8 481.52 104.81C481.52 105.19 480.81 108.26 479.42 114C478.52 117.64 478.39 120.46 479.02 122.45C480.38 126.78 483.17 128.28 487.36 126.93C490.51 125.92 493.7 123.25 496.95 118.91C500.2 114.57 502.59 109.97 504.12 105.09C505.66 100.21 508.73 92.32 513.36 81.4C517.39 71.84 520.18 65.56 521.72 62.55C523.26 59.53 525.04 57.7 527.02 57.07C527.83 56.81 528.33 56.97 528.52 57.56C528.71 58.15 528.69 58.93 528.49 59.9C523.87 85.02 532.84 106.81 537.54 113.19C531.89 114.96 526.37 117.08 521.24 119.5C497.73 130.64 81.74 272.17 145.19 252.34C225.31 227.31 209.28 282.1 223.18 268.2C252.26 239.12 494.05 138.72 541.22 117.94C541.61 117.77 542.01 117.62 542.4 117.46C557.62 128.42 599.96 147.77 599.96 119.57C600 107.23 578.75 104.63 555.16 108.84ZM316.71 164.71C315.9 164.97 315.03 165.06 314.1 164.97C311.51 164.51 309.89 163.23 309.21 161.11C308.69 159.47 309.18 157.77 310.68 156C311.51 154.96 315.97 153.65 324.07 152.08C323 159.26 320.56 163.47 316.71 164.71ZM584.13 123.29C583.05 123.36 572.34 120.83 562.02 114.1C577.87 114.81 589.04 122.98 584.13 123.29Z" fill="black"/>
</svg>
