<svg width="652" height="469" viewBox="0 0 652 469" fill="none" xmlns="http://www.w3.org/2000/svg">
<path fill-rule="evenodd" clip-rule="evenodd" d="M0 234.5V469H326H652V234.5V0H326H0V234.5ZM137 118.5L137.25 159.75L157.574 159.88C173.216 159.981 177.938 160.154 178.074 160.63C178.171 160.971 178.138 165.637 178 171L177.75 180.75L137.055 180.878C107.404 180.971 96.175 180.853 95.68 180.441C94.7325 179.655 94.6595 78.5405 95.6055 77.5945C96.064 77.136 101.132 77.0205 116.48 77.1195L136.75 77.25L137 118.5ZM283 87.5V98H262.49H241.98L242.115 108.125L242.25 118.25L252.375 118.385C257.944 118.46 262.506 118.685 262.513 118.885C262.519 119.086 262.555 123.602 262.592 128.921C262.647 136.754 262.526 138.677 261.955 139.038C261.567 139.284 256.914 139.488 251.615 139.492L241.98 139.5L242.115 149.625L242.25 159.75L262.635 159.88L283.021 160.011L282.885 170.38L282.75 180.75H236.5H190.25L190.121 129.5C190.051 101.312 190.099 77.969 190.23 77.625C190.418 77.131 200.182 77 236.734 77H283V87.5ZM336.113 77.125C336.176 77.1935 336.345 88.8375 336.488 103L336.75 128.75L346.305 128.885C353.886 128.993 355.977 128.88 356.426 128.34C356.826 127.858 357.029 120.289 357.121 102.454L357.25 77.25H377.75H398.25L398.379 107.968C398.48 132.212 398.375 138.77 397.879 139.085C397.533 139.305 395.168 139.488 392.625 139.492L388 139.5V149.75V160H377.75H367.5V169.939C367.5 177.731 367.352 180 366.817 180.445C366.326 180.852 360.496 180.974 346.192 180.881L326.25 180.75L326 170.5L325.75 160.25L315.375 160.115L305 159.98V149.74C305 140.332 304.929 139.498 304.125 139.472C303.644 139.457 301.45 139.401 299.25 139.347L295.25 139.25L295.121 108.75C295.049 91.975 295.098 77.969 295.229 77.625C295.415 77.139 299.982 77 315.734 77C326.88 77 336.051 77.0565 336.113 77.125ZM503.25 87.5V97.75L482.75 98L462.25 98.25V108.25V118.25L472.345 118.385C481.42 118.507 482.463 118.608 482.677 119.385C482.807 119.861 482.907 124.255 482.897 129.149C482.884 136.245 482.734 138.195 482.155 138.774C481.57 139.359 479.538 139.5 471.704 139.5H461.979L462.115 149.625L462.25 159.75L482.875 159.88L503.5 160.011L503.492 169.88C503.488 175.308 503.305 180.033 503.086 180.378C502.77 180.875 493.113 180.979 456.469 180.878L410.25 180.75L410.121 129.5C410.051 101.312 410.1 77.9675 410.232 77.6225C410.422 77.124 420.013 77.021 456.861 77.1225L503.25 77.25V87.5ZM556.508 118.5C556.649 141.188 556.818 159.807 556.883 159.875C556.947 159.943 566.23 160 577.51 160H598.021L597.885 170.375L597.75 180.75L557.5 180.887C535.362 180.963 516.743 180.903 516.125 180.753L515 180.481V129.074C515 100.8 515.152 77.514 515.339 77.328C515.525 77.1415 524.806 77.0475 535.964 77.1195L556.25 77.25L556.508 118.5ZM185.37 267.5C185.436 304.487 185.598 335.034 185.731 335.38C185.922 335.877 190.668 335.983 208.111 335.88L230.25 335.75L230.377 267.875L230.503 200H275.752H321V301.995V403.99L298.625 404.12L276.25 404.25L276.116 415.375L275.981 426.5H208.024C143.735 426.5 140.053 426.453 139.811 425.625C139.67 425.144 139.604 420.391 139.663 415.063C139.729 409.089 139.574 405.113 139.26 404.69C138.843 404.13 134.709 403.98 116.75 403.876L94.75 403.75L94.622 302.5C94.5515 246.812 94.601 200.967 94.732 200.622C94.9215 200.124 104.263 200.021 140.111 200.122L185.25 200.25L185.37 267.5ZM551.508 210.625C551.512 216.469 551.692 221.529 551.909 221.87C552.21 222.344 557.51 222.52 574.526 222.62L596.75 222.75L596.877 279.37L597.005 335.99L574.377 336.12L551.75 336.25L551.5 347.5L551.25 358.75L494.879 358.877L438.507 359.004L438.379 392.627L438.25 426.25H393H347.75L347.622 313.75C347.552 251.875 347.6 200.969 347.731 200.625C347.92 200.128 368.781 200 449.734 200H551.5L551.508 210.625ZM438.5 279.504V302.007L472.125 301.879L505.75 301.75L505.88 279.375L506.01 257H472.255H438.5V279.504Z" fill="white"/>
</svg>
