<svg
    width="500"
    height="170"
    viewBox="0 0 500 170"
    fill="none"
    xmlns="http://www.w3.org/2000/svg"
  >
    <path
      d="M239.672 73V27.688H250.68V63.464H268.216V73H239.672ZM291.6 59.112H290.256C289.104 59.112 287.93 59.176 286.736 59.304C285.584 59.3893 284.538 59.5813 283.6 59.88C282.704 60.1787 281.957 60.6267 281.36 61.224C280.762 61.7787 280.464 62.5253 280.464 63.464C280.464 64.0613 280.592 64.5733 280.848 65C281.146 65.4267 281.509 65.768 281.936 66.024C282.362 66.28 282.853 66.472 283.408 66.6C283.962 66.6853 284.496 66.728 285.008 66.728C287.141 66.728 288.762 66.152 289.872 65C291.024 63.8053 291.6 62.2053 291.6 60.2V59.112ZM272.336 45.48C274.213 43.688 276.389 42.344 278.864 41.448C281.381 40.552 283.941 40.104 286.544 40.104C289.232 40.104 291.493 40.4453 293.328 41.128C295.205 41.768 296.72 42.792 297.872 44.2C299.024 45.5653 299.856 47.3147 300.368 49.448C300.922 51.5387 301.2 54.0347 301.2 56.936V73H291.6V69.608H291.408C290.597 70.9307 289.36 71.9547 287.696 72.68C286.074 73.4053 284.304 73.768 282.384 73.768C281.104 73.768 279.781 73.5973 278.416 73.256C277.05 72.9147 275.792 72.36 274.64 71.592C273.53 70.824 272.613 69.8 271.888 68.52C271.162 67.24 270.799 65.6613 270.799 63.784C270.799 61.48 271.418 59.624 272.656 58.216C273.936 56.808 275.557 55.72 277.52 54.952C279.525 54.184 281.744 53.672 284.176 53.416C286.608 53.16 288.976 53.032 291.28 53.032V52.52C291.28 50.9413 290.725 49.7893 289.616 49.064C288.506 48.296 287.141 47.912 285.52 47.912C284.026 47.912 282.576 48.232 281.168 48.872C279.802 49.512 278.629 50.28 277.648 51.176L272.336 45.48ZM349.738 73V55.592C349.738 54.696 349.674 53.8427 349.546 53.032C349.418 52.1787 349.183 51.4533 348.842 50.856C348.5 50.2587 348.031 49.7893 347.434 49.448C346.879 49.064 346.132 48.872 345.194 48.872C344.298 48.872 343.508 49.064 342.826 49.448C342.186 49.832 341.631 50.344 341.162 50.984C340.735 51.624 340.415 52.3707 340.201 53.224C339.988 54.0347 339.882 54.888 339.882 55.784V73H329.386V54.824C329.386 52.9893 329.023 51.5387 328.298 50.472C327.572 49.4053 326.42 48.872 324.842 48.872C323.178 48.872 321.876 49.5333 320.938 50.856C320.042 52.1787 319.594 53.8 319.594 55.72V73H309.034V41.128H319.21V45.544H319.338C319.722 44.8613 320.191 44.2 320.746 43.56C321.343 42.92 322.047 42.3653 322.858 41.896C323.668 41.384 324.564 40.9787 325.546 40.68C326.57 40.3813 327.679 40.232 328.874 40.232C331.178 40.232 333.119 40.7013 334.698 41.64C336.319 42.5787 337.578 43.9227 338.474 45.672C339.54 44.008 340.906 42.6853 342.569 41.704C344.234 40.7227 346.26 40.232 348.65 40.232C350.826 40.232 352.639 40.6373 354.09 41.448C355.583 42.216 356.778 43.24 357.674 44.52C358.57 45.7573 359.21 47.1653 359.594 48.744C360.02 50.28 360.234 51.7947 360.234 53.288V73H349.738ZM403.679 56.936C403.679 59.1547 403.337 61.288 402.655 63.336C401.972 65.384 400.969 67.1973 399.647 68.776C398.367 70.312 396.788 71.5493 394.911 72.488C393.033 73.4267 390.9 73.896 388.511 73.896C386.377 73.896 384.351 73.4693 382.431 72.616C380.553 71.72 379.103 70.4613 378.079 68.84H377.951V73H368.286V24.616H378.783V44.52H378.911C379.807 43.4533 381.065 42.472 382.687 41.576C384.308 40.68 386.292 40.232 388.639 40.232C390.943 40.232 393.012 40.68 394.847 41.576C396.724 42.472 398.303 43.688 399.583 45.224C400.905 46.76 401.908 48.552 402.591 50.6C403.316 52.6053 403.679 54.7173 403.679 56.936ZM393.567 56.936C393.567 55.912 393.396 54.9093 393.055 53.928C392.756 52.9467 392.287 52.0933 391.647 51.368C391.007 50.6 390.217 49.9813 389.279 49.512C388.34 49.0427 387.252 48.808 386.015 48.808C384.82 48.808 383.753 49.0427 382.815 49.512C381.876 49.9813 381.065 50.6 380.383 51.368C379.743 52.136 379.231 53.0107 378.847 53.992C378.505 54.9733 378.335 55.976 378.335 57C378.335 58.024 378.505 59.0267 378.847 60.008C379.231 60.9893 379.743 61.864 380.383 62.632C381.065 63.4 381.876 64.0187 382.815 64.488C383.753 64.9573 384.82 65.192 386.015 65.192C387.252 65.192 388.34 64.9573 389.279 64.488C390.217 64.0187 391.007 63.4 391.647 62.632C392.287 61.864 392.756 60.9893 393.055 60.008C393.396 58.984 393.567 57.96 393.567 56.936ZM434.474 73V68.84H434.346C433.322 70.4613 431.85 71.72 429.93 72.616C428.053 73.4693 426.047 73.896 423.914 73.896C421.525 73.896 419.391 73.4267 417.514 72.488C415.637 71.5493 414.037 70.312 412.714 68.776C411.434 67.1973 410.453 65.384 409.77 63.336C409.087 61.288 408.746 59.1547 408.746 56.936C408.746 54.7173 409.087 52.6053 409.77 50.6C410.495 48.552 411.498 46.76 412.778 45.224C414.101 43.688 415.679 42.472 417.514 41.576C419.391 40.68 421.482 40.232 423.786 40.232C426.133 40.232 428.117 40.68 429.738 41.576C431.359 42.472 432.618 43.4533 433.514 44.52H433.642V24.616H444.138V73H434.474ZM434.09 57C434.09 55.976 433.898 54.9733 433.514 53.992C433.173 53.0107 432.661 52.136 431.978 51.368C431.338 50.6 430.549 49.9813 429.61 49.512C428.671 49.0427 427.605 48.808 426.41 48.808C425.173 48.808 424.085 49.0427 423.146 49.512C422.207 49.9813 421.418 50.6 420.778 51.368C420.138 52.0933 419.647 52.9467 419.306 53.928C419.007 54.9093 418.858 55.912 418.858 56.936C418.858 57.96 419.007 58.984 419.306 60.008C419.647 60.9893 420.138 61.864 420.778 62.632C421.418 63.4 422.207 64.0187 423.146 64.488C424.085 64.9573 425.173 65.192 426.41 65.192C427.605 65.192 428.671 64.9573 429.61 64.488C430.549 64.0187 431.338 63.4 431.978 62.632C432.661 61.864 433.173 60.9893 433.514 60.008C433.898 59.0267 434.09 58.024 434.09 57ZM471.287 59.112H469.943C468.791 59.112 467.618 59.176 466.423 59.304C465.271 59.3893 464.226 59.5813 463.287 59.88C462.391 60.1787 461.644 60.6267 461.047 61.224C460.45 61.7787 460.151 62.5253 460.151 63.464C460.151 64.0613 460.279 64.5733 460.535 65C460.834 65.4267 461.196 65.768 461.623 66.024C462.05 66.28 462.54 66.472 463.095 66.6C463.65 66.6853 464.183 66.728 464.695 66.728C466.828 66.728 468.45 66.152 469.559 65C470.711 63.8053 471.287 62.2053 471.287 60.2V59.112ZM452.023 45.48C453.9 43.688 456.076 42.344 458.551 41.448C461.068 40.552 463.628 40.104 466.231 40.104C468.919 40.104 471.18 40.4453 473.015 41.128C474.892 41.768 476.407 42.792 477.559 44.2C478.711 45.5653 479.543 47.3147 480.055 49.448C480.61 51.5387 480.887 54.0347 480.887 56.936V73H471.287V69.608H471.095C470.284 70.9307 469.047 71.9547 467.383 72.68C465.762 73.4053 463.991 73.768 462.071 73.768C460.791 73.768 459.468 73.5973 458.103 73.256C456.738 72.9147 455.479 72.36 454.327 71.592C453.218 70.824 452.3 69.8 451.575 68.52C450.85 67.24 450.487 65.6613 450.487 63.784C450.487 61.48 451.106 59.624 452.343 58.216C453.623 56.808 455.244 55.72 457.207 54.952C459.212 54.184 461.431 53.672 463.863 53.416C466.295 53.16 468.663 53.032 470.967 53.032V52.52C470.967 50.9413 470.412 49.7893 469.303 49.064C468.194 48.296 466.828 47.912 465.207 47.912C463.714 47.912 462.263 48.232 460.855 48.872C459.49 49.512 458.316 50.28 457.335 51.176L452.023 45.48ZM279.544 130.728C277.539 133.032 275.064 134.867 272.12 136.232C269.176 137.555 265.784 138.216 261.944 138.216C258.445 138.216 255.203 137.64 252.216 136.488C249.272 135.336 246.712 133.715 244.536 131.624C242.36 129.491 240.653 126.952 239.416 124.008C238.179 121.064 237.56 117.821 237.56 114.28C237.56 110.653 238.179 107.368 239.416 104.424C240.696 101.48 242.445 98.984 244.664 96.936C246.883 94.8453 249.485 93.2453 252.472 92.136C255.459 91.0267 258.68 90.472 262.136 90.472C265.336 90.472 268.472 91.048 271.544 92.2C274.659 93.3093 277.176 94.952 279.096 97.128L271.672 104.552C270.648 103.144 269.304 102.099 267.64 101.416C265.976 100.733 264.269 100.392 262.52 100.392C260.6 100.392 258.829 100.755 257.208 101.48C255.629 102.163 254.264 103.123 253.112 104.36C251.96 105.597 251.064 107.069 250.424 108.776C249.784 110.44 249.464 112.275 249.464 114.28C249.464 116.328 249.784 118.205 250.424 119.912C251.064 121.619 251.939 123.091 253.048 124.328C254.2 125.523 255.565 126.461 257.144 127.144C258.723 127.827 260.451 128.168 262.328 128.168C264.504 128.168 266.403 127.741 268.024 126.888C269.645 126.035 270.947 124.925 271.928 123.56L279.544 130.728ZM304.651 137V132.584H304.523C304.139 133.309 303.627 133.992 302.987 134.632C302.389 135.272 301.664 135.827 300.811 136.296C300 136.765 299.083 137.149 298.059 137.448C297.077 137.747 296.032 137.896 294.923 137.896C292.789 137.896 290.976 137.512 289.483 136.744C288.032 135.976 286.837 134.995 285.899 133.8C285.003 132.563 284.341 131.176 283.915 129.64C283.531 128.061 283.339 126.461 283.339 124.84V105.128H293.899V122.408C293.899 123.304 293.963 124.157 294.091 124.968C294.219 125.779 294.453 126.504 294.795 127.144C295.179 127.784 295.669 128.296 296.267 128.68C296.864 129.021 297.653 129.192 298.635 129.192C300.469 129.192 301.856 128.509 302.795 127.144C303.776 125.779 304.267 124.179 304.267 122.344V105.128H314.763V137H304.651ZM343.643 113.704C343.174 113.576 342.704 113.491 342.235 113.448C341.808 113.405 341.382 113.384 340.955 113.384C339.547 113.384 338.352 113.64 337.371 114.152C336.432 114.664 335.664 115.283 335.067 116.008C334.512 116.733 334.107 117.523 333.851 118.376C333.595 119.229 333.467 119.976 333.467 120.616V137H322.971V105.128H333.083V109.736H333.211C334.022 108.115 335.174 106.792 336.667 105.768C338.16 104.744 339.888 104.232 341.851 104.232C342.278 104.232 342.683 104.253 343.067 104.296C343.494 104.339 343.835 104.403 344.091 104.488L343.643 113.704ZM369.018 113.704C368.549 113.576 368.079 113.491 367.61 113.448C367.183 113.405 366.757 113.384 366.33 113.384C364.922 113.384 363.727 113.64 362.746 114.152C361.807 114.664 361.039 115.283 360.442 116.008C359.887 116.733 359.482 117.523 359.226 118.376C358.97 119.229 358.842 119.976 358.842 120.616V137H348.346V105.128H358.458V109.736H358.586C359.397 108.115 360.549 106.792 362.042 105.768C363.535 104.744 365.263 104.232 367.226 104.232C367.653 104.232 368.058 104.253 368.442 104.296C368.869 104.339 369.21 104.403 369.466 104.488L369.018 113.704ZM391.705 141.8C391.065 143.464 390.34 144.936 389.529 146.216C388.761 147.539 387.822 148.648 386.713 149.544C385.646 150.483 384.366 151.187 382.873 151.656C381.422 152.125 379.694 152.36 377.689 152.36C376.708 152.36 375.684 152.296 374.617 152.168C373.593 152.04 372.697 151.869 371.929 151.656L373.081 142.824C373.593 142.995 374.148 143.123 374.745 143.208C375.385 143.336 375.961 143.4 376.473 143.4C378.094 143.4 379.268 143.016 379.993 142.248C380.718 141.523 381.337 140.477 381.849 139.112L382.873 136.488L369.561 105.128H381.209L388.313 125.608H388.505L394.841 105.128H405.977L391.705 141.8Z"
      fill="#5B5B5B"
    />
    <path
      fill-rule="evenodd"
      clip-rule="evenodd"
      d="M87.0501 29V46.8779H101.73L107.759 65.5446L62.9336 135.216H84.953L116.934 87.892L137.904 141L170.934 130.484L165.691 114.183L150.487 118.915L114.837 29H87.0501Z"
      fill="#FB1465"
    />
    <path
      d="M32.5951 84.5276C32.5951 94.0045 33.6481 102.309 35.7541 109.44C37.908 116.524 41.1148 123.034 45.3746 128.969C49.6823 134.904 55.4738 141.198 62.749 147.851L55.2823 155.317C47.002 148.521 40.1815 141.772 34.8208 135.071C29.508 128.37 25.4156 120.904 22.5438 112.671C19.6721 104.439 18.2362 95.0575 18.2362 84.5276C18.2362 73.9977 19.6721 64.6165 22.5438 56.384C25.4156 48.1516 29.508 40.6849 34.8208 33.984C40.1815 27.2832 47.002 20.5345 55.2823 13.7379L62.749 21.2045C55.5216 27.8575 49.7541 34.1516 45.4464 40.0866C41.1387 45.9738 37.908 52.4832 35.7541 59.6148C33.6481 66.6986 32.5951 75.0028 32.5951 84.5276Z"
      fill="#FB1465"
    />
    <path
      d="M199.426 84.5276C199.426 75.0028 198.349 66.6986 196.195 59.6148C194.089 52.4832 190.882 45.9738 186.575 40.0866C182.267 34.1516 176.499 27.8575 169.272 21.2045L176.739 13.7379C185.019 20.5345 191.816 27.2832 197.128 33.984C202.489 40.6849 206.605 48.1516 209.477 56.384C212.349 64.6165 213.785 73.9977 213.785 84.5276C213.785 95.0575 212.349 104.439 209.477 112.671C206.605 120.904 202.489 128.37 197.128 135.071C191.816 141.772 185.019 148.521 176.739 155.317L169.272 147.851C176.547 141.198 182.315 134.904 186.575 128.969C190.882 123.034 194.089 116.524 196.195 109.44C198.349 102.309 199.426 94.0045 199.426 84.5276Z"
      fill="#FB1465"
    />
</svg>